<svg id="Layer_1" data-name="Layer 1" xmlns="http://www.w3.org/2000/svg" viewBox="0 0 64 64"><path d="M1.059,54.1a1.72,1.72,0,0,0,.193,1.348l1.289,2.133a1.835,1.835,0,0,0,2.437.641l.376-.208a7.788,7.788,0,0,0,1.554.867v.349A1.788,1.788,0,0,0,8.711,61h2.578a1.788,1.788,0,0,0,1.8-1.768v-.349a7.816,7.816,0,0,0,1.554-.867l.377.208a1.833,1.833,0,0,0,2.436-.64l1.289-2.133a1.723,1.723,0,0,0,.193-1.349,1.786,1.786,0,0,0-.86-1.094l-.33-.181a7,7,0,0,0,0-1.654l.331-.182a1.783,1.783,0,0,0,.859-1.093,1.72,1.72,0,0,0-.193-1.348l-1.289-2.133a1.834,1.834,0,0,0-2.437-.641l-.376.208a7.788,7.788,0,0,0-1.554-.867v-.349A1.788,1.788,0,0,0,11.289,43H8.711a1.788,1.788,0,0,0-1.8,1.768v.349a7.816,7.816,0,0,0-1.554.867l-.377-.208a1.835,1.835,0,0,0-2.436.64L1.252,48.549A1.723,1.723,0,0,0,1.059,49.9a1.786,1.786,0,0,0,.86,1.094l.33.181a7,7,0,0,0,0,1.654l-.331.182A1.783,1.783,0,0,0,1.059,54.1ZM4.2,52a5.273,5.273,0,0,1,.053-.737,1.754,1.754,0,0,0-.9-1.765L3.1,49.359l1.057-1.751.324.179a1.858,1.858,0,0,0,1.99-.143,5.893,5.893,0,0,1,1.284-.713,1.786,1.786,0,0,0,1.153-1.648V45h2.184v.283a1.786,1.786,0,0,0,1.153,1.648,5.863,5.863,0,0,1,1.283.713,1.858,1.858,0,0,0,1.991.143l.324-.179L16.9,49.359l-.252.139a1.755,1.755,0,0,0-.9,1.766,5.144,5.144,0,0,1,0,1.473,1.754,1.754,0,0,0,.9,1.765l.251.139-1.057,1.751-.324-.179a1.861,1.861,0,0,0-1.99.143,5.893,5.893,0,0,1-1.284.713,1.786,1.786,0,0,0-1.153,1.648V59H8.908v-.283a1.786,1.786,0,0,0-1.153-1.648,5.863,5.863,0,0,1-1.283-.713,1.864,1.864,0,0,0-1.991-.143l-.324.179L3.1,54.641l.252-.139a1.755,1.755,0,0,0,.9-1.766A5.247,5.247,0,0,1,4.2,52Z" id="id_101" style="fill: rgb(255, 255, 255);"></path><path d="M10,56a4,4,0,1,0-4-4A4,4,0,0,0,10,56Zm0-6a2,2,0,1,1-2,2A2,2,0,0,1,10,50Z" id="id_102" style="fill: rgb(255, 255, 255);"></path><path d="M23.059,14.1a1.72,1.72,0,0,0,.193,1.348l1.289,2.133a1.834,1.834,0,0,0,2.437.641l.376-.208a7.788,7.788,0,0,0,1.554.867v.349A1.788,1.788,0,0,0,30.711,21h2.578a1.788,1.788,0,0,0,1.8-1.768v-.349a7.816,7.816,0,0,0,1.554-.867l.377.208a1.833,1.833,0,0,0,2.436-.64l1.289-2.133a1.723,1.723,0,0,0,.193-1.349,1.786,1.786,0,0,0-.86-1.094l-.33-.181a7,7,0,0,0,0-1.654l.331-.182A1.783,1.783,0,0,0,40.941,9.9a1.72,1.72,0,0,0-.193-1.348L39.459,6.417a1.834,1.834,0,0,0-2.437-.641l-.376.208a7.788,7.788,0,0,0-1.554-.867V4.768A1.788,1.788,0,0,0,33.289,3H30.711a1.788,1.788,0,0,0-1.8,1.768v.349a7.816,7.816,0,0,0-1.554.867l-.377-.208a1.836,1.836,0,0,0-2.436.64L23.252,8.549A1.723,1.723,0,0,0,23.059,9.9a1.786,1.786,0,0,0,.86,1.094l.33.181a7,7,0,0,0,0,1.654l-.331.182A1.783,1.783,0,0,0,23.059,14.1ZM26.2,12a5.273,5.273,0,0,1,.053-.737,1.754,1.754,0,0,0-.9-1.765L25.1,9.359l1.057-1.751.324.179a1.856,1.856,0,0,0,1.99-.143,5.893,5.893,0,0,1,1.284-.713,1.786,1.786,0,0,0,1.153-1.648V5h2.184v.283a1.786,1.786,0,0,0,1.153,1.648,5.863,5.863,0,0,1,1.283.713,1.86,1.86,0,0,0,1.991.143l.324-.179L38.9,9.359l-.252.139a1.755,1.755,0,0,0-.9,1.766,5.144,5.144,0,0,1,0,1.473,1.754,1.754,0,0,0,.9,1.765l.251.139-1.057,1.751-.324-.179a1.862,1.862,0,0,0-1.99.143,5.893,5.893,0,0,1-1.284.713,1.786,1.786,0,0,0-1.153,1.648V19H30.908v-.283a1.786,1.786,0,0,0-1.153-1.648,5.863,5.863,0,0,1-1.283-.713,1.862,1.862,0,0,0-1.991-.143l-.324.179L25.1,14.641l.252-.139a1.755,1.755,0,0,0,.9-1.766A5.247,5.247,0,0,1,26.2,12Z" id="id_103" style="fill: rgb(255, 255, 255);"></path><path d="M32,16a4,4,0,1,0-4-4A4,4,0,0,0,32,16Zm0-6a2,2,0,1,1-2,2A2,2,0,0,1,32,10Z" id="id_104" style="fill: rgb(255, 255, 255);"></path><path d="M46.541,46.416l-1.289,2.133a1.723,1.723,0,0,0-.193,1.349,1.786,1.786,0,0,0,.86,1.094l.33.181a7,7,0,0,0,0,1.654l-.331.182a1.783,1.783,0,0,0-.859,1.093,1.72,1.72,0,0,0,.193,1.348l1.289,2.133a1.835,1.835,0,0,0,2.437.641l.376-.208a7.788,7.788,0,0,0,1.554.867v.349A1.788,1.788,0,0,0,52.711,61h2.578a1.788,1.788,0,0,0,1.8-1.768v-.349a7.816,7.816,0,0,0,1.554-.867l.377.208a1.834,1.834,0,0,0,2.436-.64l1.289-2.133a1.723,1.723,0,0,0,.193-1.349,1.786,1.786,0,0,0-.86-1.094l-.33-.181a7,7,0,0,0,0-1.654l.331-.182a1.783,1.783,0,0,0,.859-1.093,1.72,1.72,0,0,0-.193-1.348l-1.289-2.133a1.834,1.834,0,0,0-2.437-.641l-.376.208a7.788,7.788,0,0,0-1.554-.867v-.349A1.788,1.788,0,0,0,55.289,43H52.711a1.788,1.788,0,0,0-1.8,1.768v.349a7.816,7.816,0,0,0-1.554.867l-.377-.208A1.835,1.835,0,0,0,46.541,46.416ZM48.2,52a5.273,5.273,0,0,1,.053-.737,1.754,1.754,0,0,0-.9-1.765l-.251-.139,1.057-1.751.324.179a1.858,1.858,0,0,0,1.99-.143,5.893,5.893,0,0,1,1.284-.713,1.786,1.786,0,0,0,1.153-1.648V45h2.184v.283a1.786,1.786,0,0,0,1.153,1.648,5.863,5.863,0,0,1,1.283.713,1.858,1.858,0,0,0,1.991.143l.324-.179L60.9,49.359l-.252.139a1.755,1.755,0,0,0-.9,1.766,5.144,5.144,0,0,1,0,1.473,1.754,1.754,0,0,0,.9,1.765l.251.139-1.057,1.751-.324-.179a1.861,1.861,0,0,0-1.99.143,5.893,5.893,0,0,1-1.284.713,1.786,1.786,0,0,0-1.153,1.648V59H52.908v-.283a1.786,1.786,0,0,0-1.153-1.648,5.863,5.863,0,0,1-1.283-.713,1.864,1.864,0,0,0-1.991-.143l-.324.179L47.1,54.641l.252-.139a1.755,1.755,0,0,0,.9-1.766A5.247,5.247,0,0,1,48.2,52Z" id="id_105" style="fill: rgb(255, 255, 255);"></path><path d="M54,56a4,4,0,1,0-4-4A4,4,0,0,0,54,56Zm0-6a2,2,0,1,1-2,2A2,2,0,0,1,54,50Z" id="id_106" style="fill: rgb(255, 255, 255);"></path><path d="M39.667,55.691l.666,1.886c.706-.249,1.407-.533,2.084-.845l-.834-1.817C40.959,55.2,40.315,55.462,39.667,55.691Z" id="id_107" style="fill: rgb(255, 255, 255);"></path><path d="M22.417,54.915l-.834,1.817A24.784,24.784,0,0,0,32,59a25.08,25.08,0,0,0,6.25-.788l-.5-1.937A23.064,23.064,0,0,1,32,57,22.816,22.816,0,0,1,22.417,54.915Z" id="id_108" style="fill: rgb(255, 255, 255);"></path><path d="M28.515,40.875a1,1,0,0,0,1.015-.027l8-5a1,1,0,0,0,0-1.7l-8-5A1,1,0,0,0,28,30V40A1,1,0,0,0,28.515,40.875ZM30,31.8,35.113,35,30,38.2Z" id="id_109" style="fill: rgb(255, 255, 255);"></path><path d="M21,28V42a3,3,0,0,0,3,3H40a3,3,0,0,0,3-3V28a3,3,0,0,0-3-3H24A3,3,0,0,0,21,28Zm2,0a1,1,0,0,1,1-1H40a1,1,0,0,1,1,1V42a1,1,0,0,1-1,1H24a1,1,0,0,1-1-1Z" id="id_110" style="fill: rgb(255, 255, 255);"></path><path d="M56.212,40.25a25.039,25.039,0,0,0-7.676-25l-1.323,1.5a23.036,23.036,0,0,1,7.062,23Z" id="id_111" style="fill: rgb(255, 255, 255);"></path><path d="M43.5,14.077c.654.378,1.3.8,1.916,1.239l1.168-1.624c-.671-.482-1.372-.935-2.084-1.347Z" id="id_112" style="fill: rgb(255, 255, 255);"></path><path d="M20.5,14.077l-1-1.732A25.1,25.1,0,0,0,7,34c0,.692.029,1.392.085,2.082l1.994-.164C9.026,35.283,9,34.637,9,34A23.087,23.087,0,0,1,20.5,14.077Z" id="id_113" style="fill: rgb(255, 255, 255);"></path><path d="M7.788,40.25l1.937-.5c-.163-.631-.3-1.276-.407-1.915l-1.972.33C7.462,38.861,7.611,39.562,7.788,40.25Z" id="id_114" style="fill: rgb(255, 255, 255);"></path></svg>